<?xml version="1.0" encoding="UTF-8"?>
<svg id="Layer_1" xmlns="http://www.w3.org/2000/svg" version="1.1" viewBox="0 0 523 122.4">
  <!-- Generator: Adobe Illustrator 29.1.0, SVG Export Plug-In . SVG Version: 2.1.0 Build 142)  -->
  <defs>
    <style>
      .st0 {
        fill: #454c5e;
      }

      .st0, .st1, .st2, .st3, .st4, .st5, .st6 {
        fill-rule: evenodd;
      }

      .st7 {
        font-size: 25px;
      }

      .st7, .st8 {
        font-family: MyriadPro-Regular, 'Myriad Pro';
      }

      .st1 {
        fill: #31374a;
      }

      .st2 {
        fill: #b94926;
      }

      .st9 {
        fill: #74a441;
      }

      .st3 {
        fill: #c77429;
      }

      .st8 {
        font-size: 82px;
      }

      .st4 {
        fill: #dc882c;
      }

      .st5 {
        fill: #f5b46e;
      }

      .st6 {
        fill: #a43623;
      }
    </style>
  </defs>
  <g>
    <path class="st0" d="M61.3,4.4c31.9,0,57.7,25.8,57.7,57.6s-25.8,57.6-57.7,57.6S3.7,93.7,3.7,61.9,29.5,4.4,61.3,4.4h0Z"/>
    <path class="st1" d="M61.3,13.7c26.7,0,48.4,21.6,48.4,48.3s-21.7,48.3-48.4,48.3S13,88.6,13,61.9,34.6,13.7,61.3,13.7h0Z"/>
    <path class="st6" d="M61.3,16.6c25.1,0,45.5,20.3,45.5,45.4s-20.4,45.4-45.5,45.4S15.8,87,15.8,61.9,36.2,16.6,61.3,16.6h0Z"/>
    <path class="st2" d="M63.9,16.6c23.9,1.3,42.9,21.1,42.9,45.3s-19,44-42.9,45.4c-23.9-1.4-42.8-21.1-42.8-45.4S40.1,18,63.9,16.6h0Z"/>
    <path class="st3" d="M23.6,51.4c-.5,8,5.5,26,9.7,34,4.2,8,9.2,8.2,15.1,5.8,5.8-2.4,15.6-7.9,12.9-17.5-2.7-9.5-19.3-22.9-25.8-27.6-6.4-4.6-11.4-2.8-11.8,5.2h0Z"/>
    <path class="st4" d="M61.5,74.7c0-.3-.1-.6-.2-1-2.7-9.5-19.3-22.9-25.8-27.6-4.8-3.4-8.7-3.3-10.7.3.6,8.7,5.9,24.2,9.7,31.5,4.2,8,9.3,8.2,15.1,5.8,3.9-1.6,9.4-4.5,12-9.1h0Z"/>
    <path class="st3" d="M79.9,95.1c6.3-4.9,16.1-21.1,19.4-29.5,3.3-8.4.2-12.3-5.4-15.2-5.6-2.8-16.2-6.7-21.7,1.6-5.4,8.3-4.8,29.6-4.1,37.5.7,8,5.3,10.5,11.7,5.6h0Z"/>
    <path class="st4" d="M97.4,69.9c.8-1.5,1.4-3,2-4.3,3.3-8.4.2-12.3-5.4-15.2-5-2.5-13.9-5.8-19.6-.7-2.8,9.9-2.2,25.1-1.7,31.6.7,8,5.3,10.5,11.7,5.6,3.8-2.9,8.9-9.9,13-16.9h0Z"/>
    <path class="st6" d="M71,20.8c1.5,0,2.8,1.3,2.8,2.8s-1.3,2.8-2.8,2.8-2.8-1.3-2.8-2.8,1.3-2.8,2.8-2.8h0Z"/>
    <path class="st6" d="M87.7,34.9c1.5,0,2.8,1.2,2.8,2.8s-1.3,2.8-2.8,2.8-2.8-1.3-2.8-2.8,1.3-2.8,2.8-2.8h0Z"/>
    <path class="st6" d="M62.9,58.4c1.5,0,2.8,1.3,2.8,2.8s-1.3,2.8-2.8,2.8-2.8-1.3-2.8-2.8,1.3-2.8,2.8-2.8h0Z"/>
    <path class="st6" d="M59.9,92.1c2.6,0,4.8,2.2,4.8,4.8s-2.1,4.8-4.8,4.8-4.8-2.1-4.8-4.8,2.2-4.8,4.8-4.8h0Z"/>
    <path class="st6" d="M59.7,21.9c1.2,0,2.1.9,2.1,2.1s-1,2.1-2.1,2.1-2.1-.9-2.1-2.1,1-2.1,2.1-2.1h0Z"/>
    <path class="st5" d="M94,54.9c2,0,3.7,1.6,3.7,3.6s-1.7,3.6-3.7,3.6-3.6-1.6-3.6-3.6,1.7-3.6,3.6-3.6h0ZM89.1,51.7c1,0,1.7.7,1.7,1.7s-.7,1.7-1.7,1.7-1.7-.7-1.7-1.7.7-1.7,1.7-1.7h0Z"/>
    <path class="st6" d="M39.7,30.1c1.8,0,3.3,1.4,3.3,3.3s-1.4,3.2-3.3,3.2-3.3-1.4-3.3-3.2,1.5-3.3,3.3-3.3h0Z"/>
    <path class="st6" d="M69.8,45.4c.8,0,1.4.6,1.4,1.4s-.6,1.4-1.4,1.4-1.4-.6-1.4-1.4.6-1.4,1.4-1.4h0Z"/>
    <path class="st6" d="M81.6,26.6c.7,0,1.4.6,1.4,1.4s-.6,1.4-1.4,1.4-1.4-.6-1.4-1.4.6-1.4,1.4-1.4h0Z"/>
    <path class="st6" d="M95.6,43.2c.7,0,1.4.6,1.4,1.4s-.6,1.4-1.4,1.4-1.4-.6-1.4-1.4.6-1.4,1.4-1.4h0Z"/>
    <path class="st6" d="M62.9,85.1c.7,0,1.4.6,1.4,1.4s-.6,1.4-1.4,1.4-1.4-.6-1.4-1.4.6-1.4,1.4-1.4h0Z"/>
    <g>
      <path class="st9" d="M42,53.2c-.4.3-.5.8-.2,1.2l2.1,2.7c0,.1.2.2.4.3s.3,0,.5,0l3.4-.5c.3,0,.6-.3.7-.5s0-.3,0-.4c0-.5-.5-.8-1-.7l-2.9.4-1.8-2.3c-.3-.4-.8-.5-1.2-.2Z"/>
      <path class="st9" d="M57.1,46.3c.1,0,.2-.2.3-.4.1-.3,0-.6-.1-.9l-1.9-2.5,1.2-3c.2-.4,0-1-.5-1.1s-1,0-1.1.5l-1.4,3.4c-.1.3,0,.6.1.9l2.2,2.9c.3.4.8.5,1.2.2Z"/>
      <path class="st9" d="M62.5,26.9c-.4,1-.1,2.2.7,2.9l-1.4,3.4-8.5,1.2c-.3,0-.6.2-.7.5l-1.7,4.2c-.2.4,0,1,.5,1.1s1,0,1.1-.5l1.5-3.7,8-1.1,5,6.4-3.1,7.5-8.1,1-5.2-6.7s0,0,0,0h0s0,0,0,0c0,0-.2-.2-.3-.2-.2,0-.3-.1-.5,0l-8.5,1.2-.9-1.1c.1-.2.2-.3.3-.5.6-1.4-.1-3.1-1.5-3.7s-3.1.1-3.7,1.5.1,3.1,1.5,3.7,1.4.3,2,0l.9,1.1-3.1,7.6-4.7.7c-.3-.5-.7-.9-1.3-1.2-1.3-.5-2.8,0-3.3,1.4s0,2.8,1.4,3.3,2.8,0,3.3-1.4,0-.3.1-.4l4.8-.7,5.2,6.7c0,.1.3.2.4.3s.3,0,.5,0l8.5-1.2,3.3,4.1c0,.1-.1.2-.2.3-.5,1.3,0,2.8,1.4,3.3s2.8,0,3.3-1.4,0-2.8-1.4-3.3-1.2-.2-1.8,0l-3.3-4.1,1.5-3.8c.2-.4,0-1-.5-1.1s-1,0-1.1.5l-1.5,3.8-8,1.1-5-6.5,3.1-7.5,8-1.1,5.2,6.8s0,0,.1.1c0,0,0,0,0,0,0,0,0,0,.1,0,0,0,0,0,0,0,0,0,0,0,.1,0,0,0,0,0,0,0,0,0,0,0,.1,0,0,0,0,0,0,0,0,0,0,0,.1,0,0,0,0,0,0,0,0,0,0,0,0,0l8.7-1.1,1,1.3c0,.1-.2.3-.2.5-.5,1.3,0,2.8,1.4,3.3s2.8,0,3.3-1.4,0-2.8-1.4-3.3-1.1-.2-1.7,0l-1-1.3,3.1-7.6,3.9-.7c.3.6.9,1.2,1.6,1.5,1.6.7,3.4-.1,4.1-1.7s-.1-3.4-1.7-4.1-3.4.1-4.1,1.7-.2.6-.2.9l-3.9.7-4.9-6.3,1.4-3.4c1,0,2-.6,2.4-1.6s0-2.8-1.4-3.3-2.8,0-3.3,1.4ZM29.4,55.3c-.4-.2-.6-.6-.4-1s.6-.6,1-.4.6.6.4,1-.6.6-1,.4ZM57.5,65c.4.2.6.6.4,1s-.6.6-1,.4-.6-.6-.4-1,.6-.6,1-.4ZM37.6,42.2c-.5-.2-.8-.8-.6-1.4s.8-.8,1.4-.6.6.5.7,1c0,.1,0,.3,0,.4-.2.5-.8.8-1.4.6,0,0,0,0,0,0ZM74.1,39.1c.3-.6,1.1-.9,1.7-.6s1,1.1.8,1.8-1.1,1-1.8.8-.3-.1-.4-.2c-.5-.4-.6-1-.4-1.6s0,0,0-.1ZM67.6,52.5c.4.2.6.6.4,1s-.6.6-1,.4-.6-.6-.4-1,.6-.6,1-.4ZM64.1,27.5c.2-.4.6-.6,1-.4s.6.6.4,1-.6.6-1,.4-.6-.6-.4-1Z"/>
    </g>
  </g>
  <text class="st8" transform="translate(132.7 78.1)"><tspan x="0" y="0">ChemCurry</tspan></text>
  <text class="st7" transform="translate(135.8 102.8)"><tspan x="0" y="0">Reproducable Chemical Curation</tspan></text>
</svg>
