<?xml version="1.0" encoding="UTF-8"?>
<svg id="Layer_1" data-name="Layer 1" xmlns="http://www.w3.org/2000/svg" viewBox="0 0 517.959 115.158">
  <defs>
    <style>
      .cls-1 {
        fill: #454c5e;
      }

      .cls-1, .cls-2, .cls-3, .cls-4, .cls-5, .cls-6, .cls-7 {
        fill-rule: evenodd;
      }

      .cls-2 {
        fill: #31374a;
      }

      .cls-3 {
        fill: #b94926;
      }

      .cls-8 {
        fill: #74a441;
      }

      .cls-4 {
        fill: #c77429;
      }

      .cls-5 {
        fill: #dc882c;
      }

      .cls-6 {
        fill: #f5b46e;
      }

      .cls-7 {
        fill: #a43623;
      }
    </style>
  </defs>
  <g>
    <path class="cls-1" d="M57.673,0c31.855,0,57.673,25.776,57.673,57.579s-25.818,57.579-57.673,57.579S0,89.382,0,57.579,25.818,0,57.673,0h0Z"/>
    <path class="cls-2" d="M57.673,9.3c26.68,0,48.358,21.642,48.358,48.279s-21.678,48.336-48.358,48.336S9.315,84.273,9.315,57.579,30.935,9.3,57.673,9.3h0Z"/>
    <path class="cls-7" d="M57.673,12.228c25.128,0,45.483,20.322,45.483,45.351s-20.355,45.409-45.483,45.409S12.19,82.666,12.19,57.579,32.545,12.228,57.673,12.228h0Z"/>
    <path class="cls-3" d="M60.26,12.285c23.92,1.32,42.895,21.126,42.895,45.294s-18.975,43.974-42.895,45.351c-23.863-1.378-42.838-21.126-42.838-45.351S36.398,13.605,60.26,12.285h0Z"/>
    <path class="cls-4" d="M19.952,47.074c-.46,7.98,5.463,26.005,9.718,33.985,4.197,7.979,9.2,8.209,15.065,5.798,5.808-2.411,15.64-7.922,12.88-17.452-2.703-9.472-19.32-22.905-25.818-27.555-6.44-4.65-11.443-2.755-11.845,5.224h0Z"/>
    <path class="cls-5" d="M57.845,70.381c-.057-.287-.115-.631-.23-.976-2.703-9.472-19.32-22.905-25.818-27.555-4.772-3.444-8.74-3.272-10.695.287.633,8.726,5.865,24.226,9.718,31.516,4.197,7.979,9.258,8.209,15.065,5.798,3.853-1.55,9.43-4.535,11.96-9.07h0Z"/>
    <path class="cls-4" d="M76.245,90.703c6.325-4.88,16.1-21.126,19.435-29.507,3.278-8.382.23-12.343-5.405-15.213-5.635-2.813-16.215-6.659-21.678,1.608-5.405,8.266-4.773,29.564-4.083,37.487.69,7.979,5.348,10.505,11.73,5.626h0Z"/>
    <path class="cls-5" d="M93.726,65.501c.805-1.55,1.438-3.042,1.955-4.305,3.278-8.382.23-12.343-5.405-15.213-5.003-2.526-13.857-5.798-19.608-.746-2.76,9.931-2.185,25.144-1.667,31.573.69,7.98,5.347,10.506,11.73,5.626,3.795-2.927,8.855-9.931,12.995-16.935h0Z"/>
    <path class="cls-7" d="M67.39,16.419c1.495,0,2.76,1.263,2.76,2.813s-1.265,2.813-2.76,2.813c-1.552,0-2.817-1.263-2.817-2.813s1.265-2.813,2.817-2.813h0Z"/>
    <path class="cls-7" d="M84.066,30.54c1.495,0,2.76,1.206,2.76,2.756s-1.265,2.813-2.76,2.813c-1.552,0-2.817-1.263-2.817-2.813s1.265-2.756,2.817-2.756h0Z"/>
    <path class="cls-7" d="M59.225,54.02c1.495,0,2.76,1.263,2.76,2.813s-1.265,2.813-2.76,2.813c-1.552,0-2.817-1.263-2.817-2.813s1.265-2.813,2.817-2.813h0Z"/>
    <path class="cls-7" d="M56.235,87.775c2.645,0,4.772,2.181,4.772,4.822s-2.128,4.765-4.772,4.765-4.83-2.124-4.83-4.765,2.185-4.822,4.83-4.822h0Z"/>
    <path class="cls-7" d="M56.005,17.509c1.15,0,2.128.919,2.128,2.067,0,1.206-.977,2.124-2.128,2.124s-2.128-.918-2.128-2.124c0-1.148.977-2.067,2.128-2.067h0Z"/>
    <path class="cls-6" d="M90.333,50.518c2.012,0,3.68,1.607,3.68,3.617s-1.668,3.617-3.68,3.617c-1.955,0-3.623-1.607-3.623-3.617s1.667-3.617,3.623-3.617h0ZM85.445,47.361c.977,0,1.725.746,1.725,1.722,0,.919-.748,1.665-1.725,1.665-.92,0-1.667-.746-1.667-1.665,0-.976.747-1.722,1.667-1.722h0Z"/>
    <path class="cls-7" d="M36.053,25.776c1.84,0,3.278,1.435,3.278,3.272,0,1.78-1.438,3.215-3.278,3.215-1.782,0-3.278-1.435-3.278-3.215,0-1.837,1.495-3.272,3.278-3.272h0Z"/>
    <path class="cls-7" d="M66.183,41.046c.805,0,1.38.632,1.38,1.378,0,.804-.575,1.378-1.38,1.378-.748,0-1.38-.574-1.38-1.378,0-.746.633-1.378,1.38-1.378h0Z"/>
    <path class="cls-7" d="M77.913,22.274c.748,0,1.38.632,1.38,1.378s-.632,1.378-1.38,1.378-1.38-.631-1.38-1.378.632-1.378,1.38-1.378h0Z"/>
    <path class="cls-7" d="M91.943,38.807c.748,0,1.38.631,1.38,1.378s-.633,1.378-1.38,1.378c-.805,0-1.38-.631-1.38-1.378s.575-1.378,1.38-1.378h0Z"/>
    <path class="cls-7" d="M59.225,80.714c.747,0,1.38.632,1.38,1.378s-.633,1.378-1.38,1.378-1.38-.631-1.38-1.378.633-1.378,1.38-1.378h0Z"/>
    <g>
      <path class="cls-8" d="M38.376,48.866c-.384.296-.455.846-.158,1.229l2.066,2.678c.094.123.234.223.378.282.143.058.298.078.451.058l3.384-.464c.322-.044.579-.258.693-.538.056-.138.079-.292.056-.449-.066-.48-.508-.815-.988-.749l-2.89.395-1.761-2.283c-.296-.384-.847-.454-1.23-.158Z"/>
      <path class="cls-8" d="M53.459,41.925c.126-.098.218-.224.274-.361.114-.28.081-.612-.118-.868l-1.918-2.478,1.206-2.952c.183-.449-.031-.96-.48-1.143s-.96.031-1.143.48l-1.397,3.42c-.119.29-.073.622.118.869l2.226,2.877c.297.383.848.453,1.231.157Z"/>
      <path class="cls-8" d="M58.84,22.49c-.417,1.021-.118,2.158.661,2.858l-1.407,3.445-8.525,1.168c-.31.042-.574.247-.693.537l-1.723,4.217c-.183.449.031.96.48,1.143s.96-.031,1.143-.48l1.531-3.748,8.046-1.103,4.967,6.424-3.075,7.527-8.112,1.031-5.153-6.675c-.017-.022-.038-.041-.057-.061l-.004-.005c-.011-.014-.024-.024-.035-.037-.083-.096-.182-.168-.291-.219-.157-.081-.338-.115-.52-.09l-8.532,1.165-.864-1.102c.111-.161.207-.336.284-.524.585-1.433-.103-3.074-1.534-3.659-1.436-.587-3.08.102-3.665,1.535s.107,3.074,1.543,3.66c.656.268,1.355.266,1.977.05l.877,1.118-3.121,7.639-4.702.655c-.27-.507-.712-.927-1.284-1.16-1.298-.53-2.788.096-3.319,1.397s.093,2.792,1.391,3.323,2.793-.095,3.324-1.396c.057-.14.099-.283.13-.426l4.828-.672,5.215,6.735c.094.123.255.232.398.29s.298.078.451.058l8.538-1.171,3.343,4.129c-.065.109-.125.222-.174.342-.532,1.301.094,2.793,1.396,3.324s2.788-.097,3.319-1.398-.093-2.791-1.391-3.321c-.592-.242-1.223-.242-1.786-.05l-3.328-4.111,1.536-3.759c.183-.449-.032-.96-.48-1.143s-.96.031-1.143.48l-1.54,3.77-8.047,1.103-4.997-6.464,3.07-7.514,8.046-1.098,5.222,6.754c.033.042.07.08.108.114.009.008.019.017.029.025.039.032.08.062.123.086.005.003.01.005.015.008.04.022.081.039.124.055.012.004.024.008.036.012.047.014.095.026.144.033.006,0,.012,0,.017.001.043.005.086.006.13.004.016,0,.032-.002.048-.003.01,0,.02,0,.031-.002l8.662-1.1.985,1.263c-.094.141-.175.293-.242.455-.532,1.302.093,2.793,1.395,3.325s2.79-.096,3.322-1.398c.531-1.301-.094-2.791-1.394-3.322-.548-.224-1.13-.24-1.66-.089l-1.043-1.337,3.107-7.606,3.865-.71c.329.65.883,1.19,1.609,1.487,1.597.653,3.427-.116,4.08-1.713.654-1.6-.114-3.433-1.711-4.085s-3.435.115-4.089,1.716c-.117.286-.186.58-.215.873l-3.892.716-4.909-6.35,1.405-3.439c1.028.027,2.015-.573,2.427-1.58.532-1.302-.092-2.794-1.391-3.324s-2.794.095-3.326,1.397ZM25.786,50.893c-.404-.165-.597-.63-.431-1.036s.629-.602,1.033-.436.602.631.437,1.037-.632.602-1.038.436ZM53.836,60.634c.403.165.597.629.431,1.035s-.63.603-1.033.438c-.407-.166-.602-.632-.436-1.038s.63-.601,1.037-.435ZM33.967,37.872c-.541-.221-.802-.837-.583-1.374s.839-.796,1.379-.575c.398.163.642.545.652.951.003.141-.021.284-.078.422-.219.536-.832.794-1.366.578-.001,0-.003,0-.004-.001ZM70.432,34.719c.332-.607,1.078-.883,1.735-.614.702.287,1.039,1.094.751,1.799s-1.091,1.039-1.793.753c-.134-.055-.254-.128-.36-.215-.453-.374-.633-1.012-.401-1.581.02-.049.043-.096.068-.141ZM63.92,48.158c.405.165.599.631.434,1.035s-.631.603-1.036.438-.601-.632-.435-1.039.631-.6,1.037-.435ZM60.463,23.153c.167-.408.632-.604,1.04-.437.404.165.597.63.431,1.038-.165.405-.628.601-1.032.435-.407-.166-.603-.631-.438-1.036Z"/>
    </g>
  </g>
  <g>
    <path d="M173.893,71.937c-2.624,1.312-7.872,2.624-14.596,2.624-15.58,0-27.306-9.84-27.306-27.962,0-17.302,11.726-29.028,28.864-29.028,6.888,0,11.234,1.476,13.12,2.46l-1.722,5.822c-2.706-1.312-6.56-2.296-11.152-2.296-12.957,0-21.566,8.282-21.566,22.796,0,13.53,7.79,22.222,21.238,22.222,4.346,0,8.774-.902,11.644-2.296l1.476,5.658Z"/>
    <path d="M182.583,15.52h7.216v24.765h.164c1.148-2.05,2.952-3.854,5.166-5.084,2.132-1.23,4.674-2.05,7.38-2.05,5.33,0,13.858,3.28,13.858,16.974v23.616h-7.216v-22.796c0-6.396-2.378-11.808-9.184-11.808-4.674,0-8.364,3.28-9.676,7.216-.41.984-.492,2.05-.492,3.444v23.944h-7.216V15.52Z"/>
    <path d="M232.111,55.209c.164,9.758,6.396,13.776,13.612,13.776,5.166,0,8.282-.902,10.988-2.05l1.23,5.166c-2.542,1.148-6.888,2.46-13.202,2.46-12.218,0-19.516-8.036-19.516-20.008s7.052-21.402,18.614-21.402c12.957,0,16.4,11.398,16.4,18.696,0,1.476-.164,2.624-.246,3.362h-27.88ZM253.267,50.042c.082-4.592-1.886-11.726-10.004-11.726-7.298,0-10.496,6.724-11.07,11.726h21.074Z"/>
    <path d="M269.174,44.794c0-4.1-.082-7.462-.328-10.742h6.314l.328,6.396h.246c2.214-3.772,5.904-7.298,12.464-7.298,5.412,0,9.512,3.28,11.234,7.954h.164c1.23-2.214,2.788-3.936,4.428-5.166,2.378-1.804,5.002-2.788,8.774-2.788,5.248,0,13.038,3.444,13.038,17.22v23.37h-7.052v-22.468c0-7.626-2.788-12.218-8.61-12.218-4.1,0-7.298,3.034-8.528,6.56-.328.984-.574,2.296-.574,3.608v24.518h-7.052v-23.78c0-6.314-2.788-10.906-8.282-10.906-4.51,0-7.79,3.608-8.938,7.216-.41,1.066-.574,2.296-.574,3.526v23.944h-7.052v-28.946Z"/>
    <path d="M376.43,71.937c-2.624,1.312-7.872,2.624-14.596,2.624-15.58,0-27.306-9.84-27.306-27.962,0-17.302,11.726-29.028,28.864-29.028,6.888,0,11.234,1.476,13.12,2.46l-1.722,5.822c-2.706-1.312-6.56-2.296-11.152-2.296-12.957,0-21.566,8.282-21.566,22.796,0,13.53,7.79,22.222,21.238,22.222,4.346,0,8.774-.902,11.644-2.296l1.476,5.658Z"/>
    <path d="M417.347,62.917c0,4.1.082,7.708.328,10.824h-6.396l-.41-6.478h-.164c-1.886,3.198-6.068,7.38-13.12,7.38-6.232,0-13.694-3.444-13.694-17.384v-23.207h7.216v21.977c0,7.544,2.296,12.628,8.856,12.628,4.838,0,8.2-3.362,9.512-6.56.41-1.066.656-2.378.656-3.69v-24.354h7.216v28.864Z"/>
    <path d="M429.319,46.435c0-4.674-.082-8.692-.328-12.382h6.314l.246,7.79h.328c1.804-5.33,6.15-8.692,10.988-8.692.82,0,1.394.082,2.05.246v6.806c-.738-.164-1.476-.246-2.46-.246-5.084,0-8.692,3.854-9.676,9.266-.164.984-.328,2.132-.328,3.362v21.156h-7.134v-27.306Z"/>
    <path d="M456.46,46.435c0-4.674-.082-8.692-.328-12.382h6.313l.246,7.79h.328c1.805-5.33,6.15-8.692,10.988-8.692.82,0,1.394.082,2.05.246v6.806c-.737-.164-1.476-.246-2.46-.246-5.084,0-8.692,3.854-9.676,9.266-.164.984-.328,2.132-.328,3.362v21.156h-7.134v-27.306Z"/>
    <path d="M487.948,34.052l8.691,23.452c.902,2.624,1.887,5.74,2.542,8.118h.164c.738-2.378,1.559-5.412,2.542-8.282l7.872-23.288h7.627l-10.824,28.291c-5.166,13.612-8.692,20.582-13.612,24.846-3.526,3.116-7.052,4.346-8.856,4.674l-1.804-6.068c1.804-.574,4.182-1.722,6.313-3.526,1.969-1.558,4.429-4.346,6.068-8.036.328-.738.574-1.312.574-1.722s-.164-.984-.492-1.886l-14.678-36.572h7.872Z"/>
  </g>
  <g>
    <path d="M133.996,81.793c1.1-.225,2.674-.35,4.174-.35,2.324,0,3.824.425,4.874,1.375.85.75,1.325,1.899,1.325,3.199,0,2.225-1.399,3.699-3.174,4.299v.075c1.3.45,2.075,1.649,2.475,3.399.55,2.35.95,3.974,1.3,4.624h-2.25c-.275-.475-.65-1.924-1.125-4.024-.5-2.325-1.399-3.199-3.374-3.274h-2.049v7.298h-2.175v-16.621ZM136.171,89.466h2.224c2.325,0,3.799-1.275,3.799-3.199,0-2.174-1.575-3.125-3.874-3.149-1.05,0-1.8.1-2.149.2v6.148Z"/>
    <path d="M148.696,92.766c.05,2.974,1.949,4.199,4.149,4.199,1.575,0,2.524-.275,3.349-.625l.375,1.575c-.775.35-2.1.75-4.024.75-3.724,0-5.949-2.449-5.949-6.099s2.149-6.523,5.674-6.523c3.949,0,4.999,3.474,4.999,5.699,0,.45-.05.8-.075,1.025h-8.498ZM155.144,91.191c.025-1.4-.575-3.574-3.049-3.574-2.224,0-3.199,2.049-3.374,3.574h6.423Z"/>
    <path d="M159.996,90.266c0-1.55-.05-2.799-.1-3.949h1.975l.1,2.075h.05c.9-1.475,2.324-2.35,4.299-2.35,2.924,0,5.124,2.475,5.124,6.148,0,4.349-2.649,6.499-5.499,6.499-1.6,0-2.999-.7-3.724-1.899h-.05v6.573h-2.174v-13.097ZM162.171,93.49c0,.325.05.625.1.9.4,1.524,1.725,2.574,3.299,2.574,2.324,0,3.674-1.899,3.674-4.674,0-2.424-1.274-4.499-3.599-4.499-1.5,0-2.899,1.075-3.324,2.725-.075.275-.15.6-.15.9v2.074Z"/>
    <path d="M174.221,90.091c0-1.425-.025-2.649-.1-3.774h1.924l.075,2.375h.1c.55-1.625,1.875-2.649,3.349-2.649.25,0,.425.025.625.075v2.074c-.225-.05-.45-.075-.75-.075-1.55,0-2.649,1.175-2.949,2.824-.05.3-.1.65-.1,1.025v6.448h-2.174v-8.323Z"/>
    <path d="M193.093,92.266c0,4.474-3.099,6.423-6.023,6.423-3.274,0-5.799-2.399-5.799-6.224,0-4.049,2.649-6.423,5.999-6.423,3.474,0,5.824,2.524,5.824,6.224ZM183.495,92.391c0,2.649,1.524,4.649,3.674,4.649,2.1,0,3.674-1.975,3.674-4.699,0-2.049-1.025-4.648-3.624-4.648s-3.724,2.399-3.724,4.699Z"/>
    <path d="M206.318,80.668v14.622c0,1.075.025,2.299.1,3.124h-1.975l-.1-2.1h-.05c-.675,1.35-2.149,2.375-4.124,2.375-2.924,0-5.174-2.474-5.174-6.148-.025-4.024,2.475-6.499,5.424-6.499,1.85,0,3.099.875,3.649,1.85h.05v-7.223h2.199ZM204.119,91.241c0-.275-.025-.65-.1-.925-.325-1.399-1.525-2.549-3.174-2.549-2.274,0-3.624,2-3.624,4.674,0,2.45,1.2,4.474,3.574,4.474,1.475,0,2.824-.975,3.224-2.625.075-.3.1-.6.1-.95v-2.1Z"/>
    <path d="M220.093,95.115c0,1.25.025,2.35.1,3.299h-1.949l-.125-1.975h-.05c-.575.975-1.849,2.25-3.999,2.25-1.899,0-4.174-1.05-4.174-5.299v-7.073h2.2v6.699c0,2.299.7,3.849,2.699,3.849,1.475,0,2.5-1.024,2.899-2,.125-.325.2-.725.2-1.125v-7.423h2.2v8.798Z"/>
    <path d="M232.368,97.964c-.575.3-1.85.7-3.474.7-3.649,0-6.023-2.475-6.023-6.173,0-3.724,2.549-6.424,6.499-6.424,1.3,0,2.449.325,3.049.625l-.5,1.7c-.525-.3-1.35-.575-2.549-.575-2.774,0-4.274,2.05-4.274,4.574,0,2.799,1.799,4.524,4.199,4.524,1.25,0,2.075-.325,2.7-.6l.375,1.65Z"/>
    <path d="M241.644,98.414l-.175-1.524h-.075c-.675.95-1.975,1.799-3.699,1.799-2.449,0-3.699-1.725-3.699-3.474,0-2.924,2.599-4.524,7.273-4.499v-.25c0-1-.275-2.799-2.75-2.799-1.125,0-2.299.35-3.149.9l-.5-1.45c1-.65,2.45-1.075,3.974-1.075,3.699,0,4.599,2.524,4.599,4.949v4.524c0,1.05.05,2.075.2,2.899h-2ZM241.319,92.241c-2.399-.05-5.124.375-5.124,2.724,0,1.425.95,2.1,2.075,2.1,1.574,0,2.574-1,2.924-2.024.075-.225.125-.475.125-.7v-2.099Z"/>
    <path d="M246.895,98.414c.05-.825.1-2.049.1-3.124v-14.622h2.174v7.598h.05c.775-1.35,2.175-2.225,4.124-2.225,3,0,5.124,2.5,5.099,6.174,0,4.324-2.725,6.473-5.424,6.473-1.75,0-3.149-.675-4.049-2.274h-.075l-.1,2h-1.899ZM249.17,93.565c0,.275.05.55.1.8.425,1.524,1.7,2.574,3.299,2.574,2.299,0,3.674-1.875,3.674-4.649,0-2.424-1.25-4.499-3.599-4.499-1.5,0-2.899,1.025-3.349,2.7-.05.25-.125.55-.125.899v2.175Z"/>
    <path d="M261.22,80.668h2.199v17.746h-2.199v-17.746Z"/>
    <path d="M268.345,92.766c.05,2.974,1.949,4.199,4.149,4.199,1.575,0,2.524-.275,3.349-.625l.375,1.575c-.775.35-2.1.75-4.024.75-3.724,0-5.949-2.449-5.949-6.099s2.149-6.523,5.674-6.523c3.949,0,4.999,3.474,4.999,5.699,0,.45-.05.8-.075,1.025h-8.498ZM274.793,91.191c.025-1.4-.575-3.574-3.049-3.574-2.224,0-3.199,2.049-3.374,3.574h6.423Z"/>
    <path d="M296.792,97.864c-.8.4-2.399.8-4.449.8-4.749,0-8.323-3-8.323-8.523,0-5.274,3.574-8.848,8.798-8.848,2.099,0,3.424.45,3.999.75l-.525,1.774c-.825-.399-2-.7-3.399-.7-3.949,0-6.573,2.524-6.573,6.948,0,4.124,2.375,6.773,6.474,6.773,1.324,0,2.674-.275,3.549-.7l.45,1.725Z"/>
    <path d="M299.444,80.668h2.199v7.548h.05c.35-.625.899-1.175,1.574-1.55.65-.375,1.425-.625,2.25-.625,1.625,0,4.224,1,4.224,5.174v7.198h-2.2v-6.948c0-1.95-.725-3.599-2.799-3.599-1.424,0-2.549,1-2.949,2.199-.125.3-.15.625-.15,1.05v7.298h-2.199v-17.746Z"/>
    <path d="M314.543,92.766c.05,2.974,1.95,4.199,4.149,4.199,1.575,0,2.524-.275,3.349-.625l.375,1.575c-.775.35-2.1.75-4.024.75-3.724,0-5.949-2.449-5.949-6.099s2.149-6.523,5.674-6.523c3.949,0,4.999,3.474,4.999,5.699,0,.45-.05.8-.075,1.025h-8.498ZM320.991,91.191c.025-1.4-.575-3.574-3.049-3.574-2.224,0-3.199,2.049-3.374,3.574h6.423Z"/>
    <path d="M325.844,89.591c0-1.25-.025-2.274-.1-3.274h1.924l.1,1.95h.075c.675-1.15,1.799-2.225,3.799-2.225,1.65,0,2.899,1,3.424,2.424h.05c.375-.675.85-1.2,1.35-1.574.725-.55,1.525-.85,2.674-.85,1.6,0,3.974,1.05,3.974,5.249v7.123h-2.149v-6.848c0-2.325-.85-3.724-2.625-3.724-1.25,0-2.224.925-2.599,2-.1.3-.175.7-.175,1.1v7.473h-2.149v-7.248c0-1.925-.85-3.324-2.524-3.324-1.375,0-2.375,1.1-2.725,2.199-.125.325-.175.7-.175,1.075v7.298h-2.149v-8.823Z"/>
    <path d="M349.143,82.918c.025.75-.525,1.35-1.399,1.35-.775,0-1.325-.6-1.325-1.35,0-.775.575-1.375,1.375-1.375.825,0,1.35.6,1.35,1.375ZM346.694,98.414v-12.097h2.199v12.097h-2.199Z"/>
    <path d="M361.166,97.964c-.575.3-1.85.7-3.474.7-3.649,0-6.023-2.475-6.023-6.173,0-3.724,2.549-6.424,6.499-6.424,1.3,0,2.449.325,3.049.625l-.5,1.7c-.525-.3-1.35-.575-2.549-.575-2.774,0-4.274,2.05-4.274,4.574,0,2.799,1.799,4.524,4.199,4.524,1.25,0,2.075-.325,2.7-.6l.375,1.65Z"/>
    <path d="M370.442,98.414l-.175-1.524h-.075c-.675.95-1.975,1.799-3.699,1.799-2.449,0-3.699-1.725-3.699-3.474,0-2.924,2.599-4.524,7.273-4.499v-.25c0-1-.275-2.799-2.75-2.799-1.125,0-2.299.35-3.149.9l-.5-1.45c1-.65,2.45-1.075,3.974-1.075,3.699,0,4.599,2.524,4.599,4.949v4.524c0,1.05.05,2.075.2,2.899h-2ZM370.117,92.241c-2.399-.05-5.124.375-5.124,2.724,0,1.425.95,2.1,2.075,2.1,1.574,0,2.574-1,2.924-2.024.075-.225.125-.475.125-.7v-2.099Z"/>
    <path d="M375.793,80.668h2.199v17.746h-2.199v-17.746Z"/>
    <path d="M398.84,97.864c-.8.4-2.399.8-4.449.8-4.749,0-8.323-3-8.323-8.523,0-5.274,3.574-8.848,8.798-8.848,2.1,0,3.424.45,3.999.75l-.525,1.774c-.825-.399-2-.7-3.399-.7-3.949,0-6.573,2.524-6.573,6.948,0,4.124,2.375,6.773,6.474,6.773,1.325,0,2.674-.275,3.549-.7l.45,1.725Z"/>
    <path d="M411.315,95.115c0,1.25.025,2.35.1,3.299h-1.949l-.125-1.975h-.05c-.575.975-1.849,2.25-3.999,2.25-1.899,0-4.174-1.05-4.174-5.299v-7.073h2.2v6.699c0,2.299.7,3.849,2.699,3.849,1.475,0,2.5-1.024,2.899-2,.125-.325.2-.725.2-1.125v-7.423h2.2v8.798Z"/>
    <path d="M414.968,90.091c0-1.425-.025-2.649-.1-3.774h1.924l.075,2.375h.1c.55-1.625,1.875-2.649,3.349-2.649.25,0,.425.025.625.075v2.074c-.225-.05-.45-.075-.75-.075-1.55,0-2.649,1.175-2.949,2.824-.05.3-.1.65-.1,1.025v6.448h-2.174v-8.323Z"/>
    <path d="M429.716,98.414l-.175-1.524h-.075c-.675.95-1.975,1.799-3.699,1.799-2.449,0-3.699-1.725-3.699-3.474,0-2.924,2.599-4.524,7.273-4.499v-.25c0-1-.275-2.799-2.75-2.799-1.125,0-2.299.35-3.149.9l-.5-1.45c1-.65,2.45-1.075,3.974-1.075,3.699,0,4.599,2.524,4.599,4.949v4.524c0,1.05.05,2.075.2,2.899h-2ZM429.391,92.241c-2.399-.05-5.124.375-5.124,2.724,0,1.425.95,2.1,2.075,2.1,1.574,0,2.574-1,2.924-2.024.075-.225.125-.475.125-.7v-2.099Z"/>
    <path d="M437.617,82.843v3.474h3.149v1.675h-3.149v6.523c0,1.5.425,2.349,1.649,2.349.575,0,1-.075,1.274-.15l.1,1.65c-.425.175-1.1.3-1.949.3-1.025,0-1.85-.325-2.375-.925-.625-.65-.85-1.725-.85-3.149v-6.598h-1.875v-1.675h1.875v-2.899l2.15-.575Z"/>
    <path d="M445.692,82.918c.025.75-.525,1.35-1.399,1.35-.775,0-1.325-.6-1.325-1.35,0-.775.575-1.375,1.375-1.375.825,0,1.35.6,1.35,1.375ZM443.242,98.414v-12.097h2.199v12.097h-2.199Z"/>
    <path d="M460.039,92.266c0,4.474-3.099,6.423-6.023,6.423-3.274,0-5.799-2.399-5.799-6.224,0-4.049,2.649-6.423,5.999-6.423,3.474,0,5.824,2.524,5.824,6.224ZM450.442,92.391c0,2.649,1.524,4.649,3.674,4.649,2.1,0,3.674-1.975,3.674-4.699,0-2.049-1.025-4.648-3.624-4.648s-3.724,2.399-3.724,4.699Z"/>
    <path d="M462.817,89.591c0-1.25-.025-2.274-.101-3.274h1.95l.125,2h.05c.6-1.149,1.999-2.274,3.999-2.274,1.675,0,4.273,1,4.273,5.149v7.223h-2.199v-6.973c0-1.95-.725-3.574-2.799-3.574-1.45,0-2.574,1.025-2.949,2.25-.101.275-.15.65-.15,1.024v7.273h-2.199v-8.823Z"/>
  </g>
</svg>