<?xml version="1.0" encoding="UTF-8"?>
<svg id="Layer_1" data-name="Layer 1" xmlns="http://www.w3.org/2000/svg" viewBox="0 0 517.96 115.16">
  <defs>
    <style>
      .cls-1 {
        fill: #454c5e;
      }

      .cls-1, .cls-2, .cls-3, .cls-4, .cls-5, .cls-6, .cls-7 {
        fill-rule: evenodd;
      }

      .cls-8 {
        letter-spacing: -.01em;
      }

      .cls-9 {
        font-size: 25px;
      }

      .cls-9, .cls-10 {
        font-family: MyriadPro-Regular, 'Myriad Pro';
      }

      .cls-2 {
        fill: #31374a;
      }

      .cls-11 {
        letter-spacing: 0em;
      }

      .cls-12 {
        letter-spacing: 0em;
      }

      .cls-3 {
        fill: #b94926;
      }

      .cls-13 {
        letter-spacing: -.01em;
      }

      .cls-14 {
        letter-spacing: 0em;
      }

      .cls-15 {
        letter-spacing: .02em;
      }

      .cls-16 {
        letter-spacing: 0em;
      }

      .cls-17 {
        fill: #74a441;
      }

      .cls-4 {
        fill: #c77429;
      }

      .cls-10 {
        font-size: 82px;
      }

      .cls-18 {
        letter-spacing: 0em;
      }

      .cls-5 {
        fill: #dc882c;
      }

      .cls-6 {
        fill: #f5b46e;
      }

      .cls-7 {
        fill: #a43623;
      }
    </style>
  </defs>
  <g>
    <path class="cls-1" d="M57.67,0c31.86,0,57.67,25.78,57.67,57.58s-25.82,57.58-57.67,57.58S0,89.38,0,57.58,25.82,0,57.67,0h0Z"/>
    <path class="cls-2" d="M57.67,9.3c26.68,0,48.36,21.64,48.36,48.28s-21.68,48.34-48.36,48.34S9.31,84.27,9.31,57.58,30.94,9.3,57.67,9.3h0Z"/>
    <path class="cls-7" d="M57.67,12.23c25.13,0,45.48,20.32,45.48,45.35s-20.35,45.41-45.48,45.41S12.19,82.67,12.19,57.58,32.55,12.23,57.67,12.23h0Z"/>
    <path class="cls-3" d="M60.26,12.29c23.92,1.32,42.9,21.13,42.9,45.29s-18.98,43.97-42.9,45.35c-23.86-1.38-42.84-21.13-42.84-45.35S36.4,13.61,60.26,12.29h0Z"/>
    <path class="cls-4" d="M19.95,47.07c-.46,7.98,5.46,26.01,9.72,33.98,4.2,7.98,9.2,8.21,15.07,5.8,5.81-2.41,15.64-7.92,12.88-17.45-2.7-9.47-19.32-22.91-25.82-27.56-6.44-4.65-11.44-2.76-11.85,5.22h0Z"/>
    <path class="cls-5" d="M57.85,70.38c-.06-.29-.11-.63-.23-.98-2.7-9.47-19.32-22.91-25.82-27.56-4.77-3.44-8.74-3.27-10.7.29.63,8.73,5.87,24.23,9.72,31.52,4.2,7.98,9.26,8.21,15.07,5.8,3.85-1.55,9.43-4.54,11.96-9.07h0Z"/>
    <path class="cls-4" d="M76.25,90.7c6.32-4.88,16.1-21.13,19.44-29.51,3.28-8.38.23-12.34-5.41-15.21-5.63-2.81-16.22-6.66-21.68,1.61-5.41,8.27-4.77,29.56-4.08,37.49.69,7.98,5.35,10.51,11.73,5.63h0Z"/>
    <path class="cls-5" d="M93.73,65.5c.8-1.55,1.44-3.04,1.95-4.31,3.28-8.38.23-12.34-5.41-15.21-5-2.53-13.86-5.8-19.61-.75-2.76,9.93-2.19,25.14-1.67,31.57.69,7.98,5.35,10.51,11.73,5.63,3.79-2.93,8.86-9.93,13-16.94h0Z"/>
    <path class="cls-7" d="M67.39,16.42c1.5,0,2.76,1.26,2.76,2.81s-1.26,2.81-2.76,2.81-2.82-1.26-2.82-2.81,1.26-2.81,2.82-2.81h0Z"/>
    <path class="cls-7" d="M84.07,30.54c1.49,0,2.76,1.21,2.76,2.76s-1.26,2.81-2.76,2.81-2.82-1.26-2.82-2.81,1.26-2.76,2.82-2.76h0Z"/>
    <path class="cls-7" d="M59.23,54.02c1.49,0,2.76,1.26,2.76,2.81s-1.26,2.81-2.76,2.81-2.82-1.26-2.82-2.81,1.26-2.81,2.82-2.81h0Z"/>
    <path class="cls-7" d="M56.24,87.77c2.64,0,4.77,2.18,4.77,4.82s-2.13,4.76-4.77,4.76-4.83-2.12-4.83-4.76,2.18-4.82,4.83-4.82h0Z"/>
    <path class="cls-7" d="M56.01,17.51c1.15,0,2.13.92,2.13,2.07,0,1.21-.98,2.12-2.13,2.12s-2.13-.92-2.13-2.12.98-2.07,2.13-2.07h0Z"/>
    <path class="cls-6" d="M90.33,50.52c2.01,0,3.68,1.61,3.68,3.62s-1.67,3.62-3.68,3.62-3.62-1.61-3.62-3.62,1.67-3.62,3.62-3.62h0ZM85.45,47.36c.98,0,1.73.75,1.73,1.72,0,.92-.75,1.66-1.73,1.66-.92,0-1.67-.75-1.67-1.66,0-.98.75-1.72,1.67-1.72h0Z"/>
    <path class="cls-7" d="M36.05,25.78c1.84,0,3.28,1.44,3.28,3.27s-1.44,3.21-3.28,3.21-3.28-1.44-3.28-3.21,1.5-3.27,3.28-3.27h0Z"/>
    <path class="cls-7" d="M66.18,41.05c.8,0,1.38.63,1.38,1.38,0,.8-.58,1.38-1.38,1.38-.75,0-1.38-.57-1.38-1.38,0-.75.63-1.38,1.38-1.38h0Z"/>
    <path class="cls-7" d="M77.91,22.27c.75,0,1.38.63,1.38,1.38s-.63,1.38-1.38,1.38-1.38-.63-1.38-1.38.63-1.38,1.38-1.38h0Z"/>
    <path class="cls-7" d="M91.94,38.81c.75,0,1.38.63,1.38,1.38s-.63,1.38-1.38,1.38c-.8,0-1.38-.63-1.38-1.38s.58-1.38,1.38-1.38h0Z"/>
    <path class="cls-7" d="M59.23,80.71c.75,0,1.38.63,1.38,1.38s-.63,1.38-1.38,1.38-1.38-.63-1.38-1.38.63-1.38,1.38-1.38h0Z"/>
    <g>
      <path class="cls-17" d="M38.38,48.87c-.38.3-.45.85-.16,1.23l2.07,2.68c.09.12.23.22.38.28s.3.08.45.06l3.38-.46c.32-.04.58-.26.69-.54.06-.14.08-.29.06-.45-.07-.48-.51-.82-.99-.75l-2.89.4-1.76-2.28c-.3-.38-.85-.45-1.23-.16Z"/>
      <path class="cls-17" d="M53.46,41.93c.13-.1.22-.22.27-.36.11-.28.08-.61-.12-.87l-1.92-2.48,1.21-2.95c.18-.45-.03-.96-.48-1.14s-.96.03-1.14.48l-1.4,3.42c-.12.29-.07.62.12.87l2.23,2.88c.3.38.85.45,1.23.16Z"/>
      <path class="cls-17" d="M58.84,22.49c-.42,1.02-.12,2.16.66,2.86l-1.41,3.45-8.53,1.17c-.31.04-.57.25-.69.54l-1.72,4.22c-.18.45.03.96.48,1.14s.96-.03,1.14-.48l1.53-3.75,8.05-1.1,4.97,6.42-3.08,7.53-8.11,1.03-5.15-6.67s-.04-.04-.06-.06h0s-.02-.03-.04-.04c-.08-.1-.18-.17-.29-.22-.16-.08-.34-.11-.52-.09l-8.53,1.16-.86-1.1c.11-.16.21-.34.28-.52.59-1.43-.1-3.07-1.53-3.66-1.44-.59-3.08.1-3.67,1.53s.11,3.07,1.54,3.66c.66.27,1.36.27,1.98.05l.88,1.12-3.12,7.64-4.7.65c-.27-.51-.71-.93-1.28-1.16-1.3-.53-2.79.1-3.32,1.4s.09,2.79,1.39,3.32,2.79-.09,3.32-1.4c.06-.14.1-.28.13-.43l4.83-.67,5.22,6.73c.09.12.25.23.4.29s.3.08.45.06l8.54-1.17,3.34,4.13c-.06.11-.13.22-.17.34-.53,1.3.09,2.79,1.4,3.32s2.79-.1,3.32-1.4-.09-2.79-1.39-3.32c-.59-.24-1.22-.24-1.79-.05l-3.33-4.11,1.54-3.76c.18-.45-.03-.96-.48-1.14s-.96.03-1.14.48l-1.54,3.77-8.05,1.1-5-6.46,3.07-7.51,8.05-1.1,5.22,6.75s.07.08.11.11c0,0,.02.02.03.02.04.03.08.06.12.09,0,0,.01,0,.02,0,.04.02.08.04.12.05.01,0,.02,0,.04.01.05.01.1.03.14.03,0,0,.01,0,.02,0,.04,0,.09,0,.13,0,.02,0,.03,0,.05,0,.01,0,.02,0,.03,0l8.66-1.1.98,1.26c-.09.14-.18.29-.24.46-.53,1.3.09,2.79,1.39,3.32s2.79-.1,3.32-1.4c.53-1.3-.09-2.79-1.39-3.32-.55-.22-1.13-.24-1.66-.09l-1.04-1.34,3.11-7.61,3.86-.71c.33.65.88,1.19,1.61,1.49,1.6.65,3.43-.12,4.08-1.71.65-1.6-.11-3.43-1.71-4.09s-3.43.12-4.09,1.72c-.12.29-.19.58-.22.87l-3.89.72-4.91-6.35,1.4-3.44c1.03.03,2.02-.57,2.43-1.58.53-1.3-.09-2.79-1.39-3.32s-2.79.1-3.33,1.4ZM25.79,50.89c-.4-.17-.6-.63-.43-1.04s.63-.6,1.03-.44.6.63.44,1.04-.63.6-1.04.44ZM53.84,60.63c.4.16.6.63.43,1.03s-.63.6-1.03.44-.6-.63-.44-1.04.63-.6,1.04-.43ZM33.97,37.87c-.54-.22-.8-.84-.58-1.37s.84-.8,1.38-.57c.4.16.64.54.65.95,0,.14-.02.28-.08.42-.22.54-.83.79-1.37.58,0,0,0,0,0,0ZM70.43,34.72c.33-.61,1.08-.88,1.73-.61.7.29,1.04,1.09.75,1.8s-1.09,1.04-1.79.75c-.13-.05-.25-.13-.36-.21-.45-.37-.63-1.01-.4-1.58.02-.05.04-.1.07-.14ZM63.92,48.16c.4.17.6.63.43,1.04s-.63.6-1.04.44-.6-.63-.43-1.04.63-.6,1.04-.43ZM60.46,23.15c.17-.41.63-.6,1.04-.44s.6.63.43,1.04-.63.6-1.03.44-.6-.63-.44-1.04Z"/>
    </g>
  </g>
  <text class="cls-10" transform="translate(129.04 73.74)"><tspan x="0" y="0">Chem</tspan><tspan class="cls-8" x="202.54" y="0">C</tspan><tspan x="249.11" y="0">u</tspan><tspan class="cls-11" x="294.29" y="0">r</tspan><tspan class="cls-15" x="321.44" y="0">r</tspan><tspan x="350.3" y="0">y</tspan></text>
  <text class="cls-9" transform="translate(132.1 98.41)"><tspan class="cls-18" x="0" y="0">R</tspan><tspan x="13.55" y="0">ep</tspan><tspan class="cls-16" x="40.3" y="0">r</tspan><tspan x="48.22" y="0">oducable Chemical </tspan><tspan class="cls-13" x="253.07" y="0">C</tspan><tspan x="267.27" y="0">u</tspan><tspan class="cls-12" x="281.05" y="0">r</tspan><tspan class="cls-14" x="289.1" y="0">a</tspan><tspan x="301.05" y="0">tion</tspan></text>
</svg>
